<svg version="1.2" xmlns="http://www.w3.org/2000/svg" viewBox="0 0 1090 360" width="1090" height="360">
	<title>New Project</title>
	<style>
		.s0 { fill: #ffffff } 
	</style>
	<path id="Layer" fill-rule="evenodd" class="s0" d="m881.6 105.1l29.5-3.9v97l37.4-43.9h32.8l-40.9 47.6 47.9 55h-36.1l-41.1-47.7v47.7h-29.5zm-12.5 100.5c0 31.9-22.8 53.9-55.5 53.9-32.7 0-55.5-22-55.5-53.9 0-31.9 22.8-53.9 55.5-53.9 32.7 0 55.5 22 55.5 53.9zm-30 0c0-17.1-10.3-28.8-25.5-28.8-15.2 0-25.6 11.7-25.6 28.8 0 17.1 10.4 28.8 25.6 28.8 15.2 0 25.5-11.7 25.5-28.8zm-89.9 0c0 31.9-22.7 53.9-55.4 53.9-32.7 0-55.5-22-55.5-53.9 0-31.9 22.8-53.9 55.5-53.9 32.7 0 55.4 22 55.4 53.9zm-29.9 0c0-17.1-10.3-28.8-25.5-28.8-15.2 0-25.6 11.7-25.6 28.8 0 17.1 10.4 28.8 25.6 28.8 15.2 0 25.5-11.7 25.5-28.8zm-89.9 0c0 31.2-20.5 53.9-48.4 53.9-15.4 0-27.9-6.6-34.9-18.5l-0.5 15.9h-26.2v-151.8l29.5-3.9v65.6c7.1-9.8 18.4-15.1 32.1-15.1 28 0 48.4 22.7 48.4 53.9zm-29.9 0c0-17.1-10.4-28.8-25.5-28.8-15.2 0-25.6 11.7-25.6 28.8 0 17.1 10.4 28.8 25.6 28.8 15.1 0 25.5-11.7 25.5-28.8zm-107.7 19.7l10.7 18.7c-10.7 9.7-27.6 15.5-45.1 15.5-33.7 0-56.5-21.6-56.5-53.9 0-31.9 21.7-53.9 53-53.9 31.1 0 49.6 19.8 49.6 52.8 0 3-0.5 7.6-1.2 11.4h-72.7c3.9 12.5 15.1 19.8 30.7 19.8 11.1 0 21.2-3.3 31.5-10.4zm-62.8-29.5h47.1v-0.1c0-12.8-8.7-21.1-22.3-21.1-13.2 0-22 7.6-24.8 21.2zm-128.9 9.8c0-31.6 22.6-53.9 54.6-53.9 14.6 0 29.2 5.2 38.7 13.8l-11.7 19.8c-7.1-5.1-15.9-8.1-24-8.1-16.4 0-27.3 11.5-27.3 28.4 0 17 10.9 28.4 27.3 28.4 8.8 0 18.1-3.4 26.2-9.8l11.6 19.4c-10.5 10.1-25.5 15.9-40.7 15.9-32.1 0-54.7-22.4-54.7-53.9zm-12.9-51.3v102.6h-26.2l-0.5-15.8c-6.9 11.8-19.5 18.4-34.8 18.4-28 0-48.5-22.7-48.5-53.9 0-31.2 20.4-53.9 48.5-53.9 15.3 0 27.8 6.6 34.8 18.6l0.5-16zm-29 51.3c0-17.1-10.4-28.8-25.5-28.8-15.2 0-25.6 11.7-25.6 28.8 0 17.1 10.4 28.8 25.6 28.8 15.1 0 25.5-11.7 25.5-28.8zm-87.7-26.3h-22v77.6h-29.4v-77.6h-16.8v-24.9h16.8v-10.6c0-27.7 12.5-40.5 39.6-40.5 5.1 0 14 1 17.6 2.1v22.5c-1.9-0.2-5.2-0.3-9.4-0.3-13.3 0-18.4 5-18.4 18.1v8.8h26.5z"/>
</svg>